Coordinates
version=1
nRows=8
nColumns=40
inDegrees=yes

Units are S.I. units (second, meters, Newtons, ...)
If the header above contains a line with 'inDegrees', this indicates whether rotational values are in degrees (yes) or radians (no).

endheader
time	pelvis_tilt	pelvis_list	pelvis_rotation	pelvis_tx	pelvis_ty	pelvis_tz	hip_flexion_r	hip_adduction_r	hip_rotation_r	knee_angle_r	knee_angle_r_beta	ankle_angle_r	subtalar_angle_r	mtp_angle_r	hip_flexion_l	hip_adduction_l	hip_rotation_l	knee_angle_l	knee_angle_l_beta	ankle_angle_l	subtalar_angle_l	mtp_angle_l	lumbar_extension	lumbar_bending	lumbar_rotation	arm_flex_r	arm_add_r	arm_rot_r	elbow_flex_r	pro_sup_r	wrist_flex_r	wrist_dev_r	arm_flex_l	arm_add_l	arm_rot_l	elbow_flex_l	pro_sup_l	wrist_flex_l	wrist_dev_l
      3.72500000	    -37.16050169	      0.66327474	      2.89090910	      0.10113161	      0.64344129	     -1.11813914	     95.68710684	    -46.58078775	     -7.68445125	     82.13701509	      1.43356135	     17.10717372	      6.72828809	      0.00000000	     93.11095724	    -41.72503642	     -9.06531234	     75.01637287	      1.30928270	     12.71491668	     15.04339060	      0.00000000	      0.00000000	      0.00000000	      0.00000000	     44.49521375	    -15.13240934	     44.49521375	     75.01825289	     44.99991431	      0.00000000	      0.00000000	     44.49521375	    -15.13240934	     44.49521375	     75.01825289	     44.99991431	      0.00000000	      0.00000000
      3.73000000	    -36.91892352	      0.62991684	      2.76604700	      0.10142756	      0.64233595	     -1.11786039	     95.59952535	    -46.52673248	     -7.62435039	     82.42630236	      1.43861037	     17.23760210	      6.74246162	      0.00000000	     93.14112041	    -42.05197845	     -8.92457612	     75.33266250	      1.31480299	     12.88763951	     15.39292182	      0.00000000	      0.00000000	      0.00000000	      0.00000000	     44.50946934	    -15.12649537	     44.50946934	     75.01682121	     44.99992839	      0.00000000	      0.00000000	     44.50946934	    -15.12649537	     44.50946934	     75.01682121	     44.99992839	      0.00000000	      0.00000000
      3.73500000	    -36.79378521	      0.59485354	      2.74645614	      0.10157330	      0.64091727	     -1.11781088	     95.69415255	    -46.56776398	     -7.48403873	     82.73327744	      1.44396809	     17.44764522	      6.70788870	      0.00000000	     93.32432754	    -42.21144474	     -8.72933856	     75.66356873	      1.32057840	     13.01186150	     15.54015244	      0.00000000	      0.00000000	      0.00000000	      0.00000000	     44.51985764	    -15.12225562	     44.51985764	     75.01582997	     44.99993733	      0.00000000	      0.00000000	     44.51985764	    -15.12225562	     44.51985764	     75.01582997	     44.99993733	      0.00000000	      0.00000000
      3.74000000	    -37.28582985	      0.62373623	      2.98425170	      0.10100523	      0.63772993	     -1.11825621	     96.82132921	    -46.84258845	     -6.87608106	     83.17706270	      1.45171361	     17.44211329	      6.77801758	      0.00000000	     94.22637983	    -41.95107049	     -8.44705824	     76.05025579	      1.32732736	     12.97556810	     15.27565212	      0.00000000	      0.00000000	      0.00000000	      0.00000000	     44.53304433	    -15.11694460	     44.53304433	     75.01462330	     44.99994742	      0.00000000	      0.00000000	     44.53304433	    -15.11694460	     44.53304433	     75.01462330	     44.99994742	      0.00000000	      0.00000000
      3.74500000	    -37.04578029	      0.63449288	      2.78085729	      0.10131920	      0.63661713	     -1.11770780	     96.77636685	    -46.66178624	     -6.74697985	     83.47005672	      1.45682732	     17.61229452	      6.63985550	      0.00000000	     94.22670591	    -42.37658285	     -8.35352241	     76.36784380	      1.33287032	     13.11393948	     15.59673742	      0.00000000	      0.00000000	      0.00000000	      0.00000000	     44.54210731	    -15.11334779	     44.54210731	     75.01383121	     44.99995355	      0.00000000	      0.00000000	     44.54210731	    -15.11334779	     44.54210731	     75.01383121	     44.99995355	      0.00000000	      0.00000000
      3.75000000	    -37.32944403	      0.70696359	      3.00694377	      0.10106342	      0.63404083	     -1.11801939	     97.65987650	    -46.93854620	     -6.15796830	     83.89056705	      1.46416661	     17.67948425	      6.80594632	      0.00000000	     94.78394331	    -42.17843319	     -8.22413806	     76.70756733	      1.33879961	     13.15719580	     15.47275243	      0.00000000	      0.00000000	      0.00000000	      0.00000000	     44.55246643	    -15.10927681	     44.55246643	     75.01295306	     44.99996001	      0.00000000	      0.00000000	     44.55246643	    -15.10927681	     44.55246643	     75.01295306	     44.99996001	      0.00000000	      0.00000000
      3.75500000	    -37.38611534	      0.72094219	      3.07848612	      0.10101493	      0.63208694	     -1.11803459	     98.10532419	    -47.04913236	     -5.80829494	     84.25222144	      1.47047867	     17.84335849	      6.81144943	      0.00000000	     95.13477226	    -42.19499842	     -8.04765743	     77.02487703	      1.34433771	     13.24494440	     15.49294334	      0.00000000	      0.00000000	      0.00000000	      0.00000000	     44.56368752	    -15.10493232	     44.56368752	     75.01204616	     44.99996609	      0.00000000	      0.00000000	     44.56368752	    -15.10493232	     44.56368752	     75.01204616	     44.99996609	      0.00000000	      0.00000000
      3.76000000	    -37.42336779	      0.67732408	      3.06616714	      0.10106153	      0.63019206	     -1.11791883	     98.43281013	    -47.07413074	     -5.59820193	     84.59261803	      1.47641971	     17.90441850	      6.78777665	      0.00000000	     95.53873967	    -42.33463896	     -7.79265818	     77.37009393	      1.35036288	     13.30976298	     15.63854841	      0.00000000	      0.00000000	      0.00000000	      0.00000000	     44.57216089	    -15.10169286	     44.57216089	     75.01138778	     44.99997022	      0.00000000	      0.00000000	     44.57216089	    -15.10169286	     44.57216089	     75.01138778	     44.99997022	      0.00000000	      0.00000000
